<?xml version="1.0" encoding="utf-8"?>
<!-- Generator: Adobe Illustrator 27.3.1, SVG Export Plug-In . SVG Version: 6.00 Build 0)  -->
<svg version="1.1" id="Layer_1" xmlns="http://www.w3.org/2000/svg" xmlns:xlink="http://www.w3.org/1999/xlink" x="0px" y="0px"
	 viewBox="0 0 1000 1000" style="enable-background:new 0 0 1000 1000;" xml:space="preserve">
<style type="text/css">
	.st0{fill:#F4A1CE;}
	.st1{fill:#FFBEE3;}
	.st2{fill:#F36E70;}
	.st3{fill:#E35F9B;}
	.st4{fill:#FFFFFF;}
	.st5{fill:none;}
	.st6{fill:#FBB03B;}
	.st7{fill:#FCEE21;}
	.st8{fill:#C1272D;}
	.st9{fill:#FFD02B;}
	.st10{fill:#C69C6D;}
	.st11{fill:#8C6239;}
	.st12{fill:#A67C52;}
	.st13{fill:#008ECC;}
	.st14{fill:#E79CC4;}
</style>
<g>
	<path class="st5" d="M276.27,615.79c0.01,0.02,0.02,0.03,0.03,0.04c-0.01-0.02-0.02-0.04-0.03-0.06
		C276.27,615.78,276.27,615.78,276.27,615.79z"/>
	<path class="st5" d="M276.04,614.79c0.02,0.04,0.07-0.09,0.12-0.25C276.13,614.58,276.03,614.75,276.04,614.79z"/>
	<path class="st5" d="M276.18,614.51c0.01-0.22,0-0.32-0.02,0.02v0.01v0.19C276.17,614.65,276.17,614.57,276.18,614.51z
		 M276.16,614.52C276.17,614.52,276.17,614.52,276.16,614.52c0.01-0.01,0.01-0.01,0.01-0.01c0,0.01-0.01,0.01-0.01,0.02
		C276.16,614.53,276.16,614.53,276.16,614.52z"/>
	<path class="st5" d="M279.8,611.38c-0.36,0.19-0.74,0.35-1.08,0.57c-0.21,0.12-0.41,0.25-0.61,0.39c-0.02,0.01-0.05,0.03-0.07,0.05
		c-0.13,0.11-0.29,0.24-0.34,0.3c-0.18,0.16-0.35,0.32-0.52,0.48c-0.15,0.15-0.3,0.31-0.44,0.47c-0.16,0.25-0.32,0.5-0.48,0.76
		c-0.02,0.06-0.04,0.11-0.06,0.17c-0.01,0.02-0.02,0.11-0.03,0.21c-0.01,0.21-0.01,0.42,0,0.63c0,0.01,0,0.01,0,0.02
		c0.01,0.05,0.02,0.11,0.05,0.16c0.06,0.12,0.13,0.25,0.2,0.37c0.16,0.16,0.33,0.33,0.5,0.48c0.51,0.34,1.05,0.62,1.6,0.88
		c0.1,0.03,0.19,0.07,0.29,0.11c0.11,0.04,0.22,0.07,0.34,0.11c0.02-0.02,0.04-0.06,0.05-0.07c0.16-0.26,0.3-0.53,0.45-0.81
		c0.11-0.34,0.21-0.67,0.3-1.03c0.06-0.27,0.11-0.54,0.16-0.81c0.02-0.06,0.03-0.17,0.05-0.28c0.01-0.1,0.02-0.19,0.02-0.23
		c0.02-0.28,0.04-0.55,0.06-0.82c0.02-0.59,0.03-1.19,0.01-1.78c-0.01-0.13-0.03-0.28-0.05-0.43
		C280.06,611.3,279.93,611.33,279.8,611.38z"/>
	<path class="st5" d="M279.9,610.11c-0.05,0.01,0.01,0.14,0.1,0.29C279.98,610.34,279.91,610.11,279.9,610.11z"/>
	<path class="st5" d="M389.55,820.61c1.99-6.43,2.91-18.21-2.29-19.13c-1.68-0.31-3.98,0-7.04,3.52c-2.3,2.6-3.83,5.82-4.9,9.18
		c-2.75,8.88-3.21,18.83-3.06,28.01c0,1.22,0.15,2.45,0.15,3.67C380.36,839.59,386.64,829.95,389.55,820.61z"/>
	<path class="st5" d="M359.09,833.62c0.13-1.93,0.29-3.92,0.51-5.94c-0.79-0.02-1.55-0.03-2.19-0.03c-4.44-0.15-8.72,0-13.16,0.15
		c-1.22,11.94-2.29,23.88-2.75,35.97c-0.31,11.79-0.92,20.51,3.21,24.18c4.66-1.43,11.62-9.67,16.25-22.19
		C359.1,855.62,358.43,842.64,359.09,833.62z"/>
	<path class="st5" d="M295.27,829.64c-0.46,0.31-1.22,1.07-1.53,3.37c-0.61,3.98,1.07,8.72,4.59,10.71c0.77,0.46,1.53,0.61,2.3,0.77
		c0.15-1.53,0.31-3.21,0.31-4.75c0.15-2.6,0-5.51-0.92-7.96C298.95,829.03,296.8,828.57,295.27,829.64z"/>
	<path class="st5" d="M248.75,803.62c-8.72,3.98-13.62,22.34-15.76,29.23c-0.92,2.91-1.53,6.12-2.14,9.34
		C243.24,831.78,268.8,812.35,248.75,803.62z"/>
	<path class="st5" d="M246.76,866.22c-7.81,3.52-17.14,7.96-21.89,15.46c-2.14,3.21-2.91,6.89-1.53,10.71
		c2.75,7.65,10.87,8.26,16.22,4.13s8.88-13.93,10.25-18.98c1.07-4.13,1.68-8.72,1.53-13.16C249.82,865,248.29,865.61,246.76,866.22z
		"/>
	<path class="st5" d="M428.88,851.99c-0.15,0-1.99,0-2.14-0.61c-0.15-0.77-0.31-1.38-0.77-2.14c0,0.15-0.15,0.31-0.31,0.46
		c-2.6,3.98-3.83,8.72-4.13,13.32c-0.15,2.45-0.15,4.9,0.61,7.19c0.31,0.61,0.61,1.53,1.07,1.99l0.15,0.15
		c1.68-1.22,3.37-3.06,4.44-4.13c1.22-1.22,2.29-2.6,3.37-3.83c-0.61-4.13-0.92-8.26-1.07-12.55
		C429.64,851.99,429.34,851.99,428.88,851.99z"/>
	<path class="st5" d="M633.04,866.68h0.15c0.31-1.38,0.61-2.91,0.92-4.59c-1.84-0.31-3.67-0.46-5.36-0.76
		C630.44,862.85,631.97,864.69,633.04,866.68z"/>
	<path class="st5" d="M681.24,829.64c-0.46,0.31-1.22,1.07-1.53,3.37c-0.61,3.98,1.07,8.72,4.59,10.71c0.77,0.46,1.53,0.61,2.3,0.77
		c0.15-1.53,0.31-3.21,0.31-4.75c0.15-2.6,0-5.51-0.92-7.96C684.92,829.03,682.77,828.57,681.24,829.64z"/>
	<path class="st5" d="M457.5,816.94c0.31-3.06,0.46-11.63-3.21-12.55c-0.77-0.15-1.68,0.31-2.45,0.61l-1.38,1.38
		c-1.22,1.22-2.14,2.75-2.91,4.29c-1.68,3.83-2.45,8.11-3.06,12.24c-1.07,7.81-1.38,15.61-1.07,23.42c0,0.61,0,1.38,0.15,1.99
		c3.21-4.9,6.27-9.95,8.88-15.3C454.9,827.96,457.04,822.6,457.5,816.94z"/>
	<path class="st5" d="M740.32,816.33c0.46-3.06,0.61-6.12-0.31-9.18c-0.46-1.38-1.22-3.37-2.6-3.83c-2.14,0.31-4.74,7.96-6.12,12.4
		c-2.29,8.11-3.67,16.83-4.13,25.25c0,1.99-0.15,3.98-0.15,5.97c2.91-3.98,5.51-8.42,7.65-13.01
		C737.41,828.42,739.55,822.45,740.32,816.33z"/>
	<path class="st5" d="M527.59,915.81c-0.15,2.29-0.15,7.35,2.14,9.34c3.52-2.75,5.82-7.04,7.5-11.02c3.06-7.35,4.59-15.46,5.2-23.42
		c0.31-3.21,0.31-6.43,0.31-9.64c-3.98,4.59-7.5,9.49-10.1,15.15C529.89,902.34,527.9,909.07,527.59,915.81z"/>
	<path class="st5" d="M276.1,615.14c0.02-0.07,0.04-0.19,0.05-0.32c-0.02,0.11-0.03,0.22-0.06,0.3
		C276.1,615.12,276.1,615.13,276.1,615.14z"/>
	<path class="st0" d="M696.41,551.86c-1.49-0.69-3.09-1.17-4.74-1.35C693.12,551.35,694.75,551.78,696.41,551.86z"/>
	<path class="st0" d="M242.97,573.55c0.2-0.26,0.38-0.53,0.56-0.81C243.3,573.01,243.12,573.28,242.97,573.55z"/>
	<path class="st0" d="M684.14,556.03c1.59,1.18,3.26,2.24,4.87,3.28c2.91,1.85,5.65,3.61,7.96,5.94c2.29,2.31,1.98,3.8,0.65,5.6
		c-0.81,1.13-1.45,1.29-1.97,1.29c-0.74,0-1.72-0.36-2.99-1.09c-3.4-1.92-6.39-4.7-9.7-9.03c-0.29-0.38-0.7-0.91-1.23-1.43
		l-3.1,11.31l-6.74-1.85c-0.13,0.54-0.27,1.1-0.42,1.66c-0.21,0.81-0.44,1.65-0.61,2.52c-0.01,0-0.01-0.01-0.01-0.01
		c-1.38-2.51-1.67-5.41-1.98-8.48c-0.11-1.09-0.23-2.22-0.39-3.35c-1.03-6.97-4.5-11.39-10.64-13.52
		c-12.81-4.45-25.34-10.29-37.44-15.94c-3.91-1.82-7.96-3.71-11.95-5.53c-4.07-1.84-6.54-4.22-8.08-8.01
		c3.97,1.47,8.01,2.87,11.93,4.24c9.81,3.41,19.95,6.94,29.33,11.47c8.52,4.1,17.79,7.89,27.83,7.89c2.83,0,5.6-0.31,8.35-0.92
		l3.12-11.39c-41.97,2.08-84.61-18.67-108.41-53.39c30.18-38.44,34.54-95.28,10.6-137.89c25.44-12.81,51.37-26.76,69.2-48.98
		c17.83-22.22,25.62-54.94,11.32-79.58c-8.91-15.34-25.1-25.48-42.21-30.17c-17.11-4.69-35.18-4.47-52.86-2.97
		c-37.26,3.16-74.03,11.89-108.77,25.72l-1.58,3.31c-1.52,3.21-3.09,6.32-4.71,9.35c7.86-3.21,15.89-6.11,24.1-8.64l1.84-0.56
		c25.54-7.91,51.94-16.06,78.9-19.47c1.6-0.2,3.22-0.44,4.77-0.68c4.07-0.6,8.27-1.23,12.54-1.24c-6.06,5.99-9.76,13.45-11.5,23.03
		c-1.78,9.84-0.26,18.82,1.74,28.72c2.29,11.28,5.26,23.23,11.43,34.22c8.48,15.12,27.72,24.16,51.42,24.16
		c1.82,0,3.63-0.06,5.44-0.18c-0.81,0.74-1.57,1.42-2.34,2.09c-14.99,12.98-32.78,24.01-55.97,34.7c-2.14,0.98-4.46,2.24-4.96,4.7
		c-0.48,2.41,1.17,4.54,2.44,5.94c4.46,4.86,7.76,10.95,10.07,18.61c4.94,16.29,6.57,33.69,5.25,56.42
		c-1.37,24.01-11.19,42.8-29.16,55.84c-35.59,25.8-72.65,38.89-110.15,38.89c-12.07,0-24.45-1.35-36.76-4.01
		c-25.94-5.59-46.63-17.04-61.46-34.01c-30.04-34.36-40.15-76.79-30.05-126.09c2.75-13.47,7.68-26.29,14.87-38.62
		c-4.77,1.32-8.9,2.26-12.19,2.92c-1.88,3.76-3.63,7.6-5.2,11.54c-19.75,49.61-9.9,108.5,20.39,152.48
		c1.95,2.84,4.06,5.83,4.25,9.26c0.16,3.04-1.22,5.95-2.88,8.5c-17.47,26.81-59.66,21.87-84.24,42.36
		c-4.95-10.72-19.03-14.54-29.62-10.72c-5.78,2.09-10.31,5.54-8.7,12.03c1.47,5.96,7.53,12.29,14.31,10.55
		c-9.04,2.32-15.22,13.31-11.3,21.78c3.78,8.16,16.9,9.98,22.2,2.97c0.16-0.27,0.34-0.55,0.56-0.81c-0.17,0.28-0.36,0.55-0.56,0.81
		c-2.93,5.16,5.58,11.82,11.55,9.26c6.29-2.69,9.12-9.82,12.39-15.83c10.16-18.67,30.62-31.3,51.86-32.01
		c-8.4,26.97-15.18,54.44-20.33,82.22c0,0,0.01,0,0.01,0c2.24-0.21,4.39,1.66,5.04,3.68c0.39,1.18,0.12,2.73-0.49,3.79
		c-0.7,1.18-1.72,1.78-2.95,2.27c-0.52,0.21-1.06,0.37-1.6,0.51c-0.6,0.16-1.21,0.29-1.81,0.4c-0.03,0.01-0.06,0.01-0.09,0.01
		c-3.56,20.99-6.2,42.14-7.87,63.37c-0.2,2.61-0.31,5.49,1.32,7.53c1.89,2.37,5.32,2.65,8.35,2.74c22.16,0.66,44.32,1.31,66.47,1.97
		c3.77,17.78,2.87,36.54-2.59,53.88c-0.92,2.93-1.98,6.08-0.98,8.99c1.36,3.95,5.85,5.73,9.87,6.89c19.47,5.6,39.88,7.94,60.11,6.87
		c7.01-0.37,14.41-1.3,19.97-5.59c5.56-4.29,8.26-13.01,3.91-18.52c-2.99-3.79-8.17-4.95-12.95-5.64
		c-18.05-2.6-36.57-1.95-54.4,1.93c1.21-16.32,2.43-32.63,3.64-48.95c39.03-0.37,78.06-0.73,117.09-1.1
		c-0.24,19.73-0.47,39.46-0.71,59.19c-0.03,2.83-0.03,5.81,1.33,8.29c2.12,3.88,6.85,5.4,11.15,6.42c21.54,5.11,44,6.27,65.95,3.4
		c4.82-0.63,10.12-1.74,13-5.66c3.34-4.54,1.89-11.33-1.91-15.49c-3.81-4.16-9.36-6.21-14.81-7.67c-15.91-4.26-32.85-4.6-48.92-0.98
		c0.26-15.75,0.53-31.51,0.79-47.26c30.96-0.85,61.92-1.69,92.88-2.54c2.64-0.07,5.61-0.29,7.32-2.3c1.5-1.76,1.52-4.3,1.45-6.62
		c-1.63-51.79-10.99-103.32-27.67-152.37c21.5,6.2,45.71,14.74,54.11,35.47c0.89,2.2,1.6,4.54,3.12,6.38
		c4.93,5.95,16.84,0.52,15.57-7.11c3.34,8.67,16.86,9.22,22.76,2.46c0.68-0.78,1.25-1.65,1.71-2.61c3.67-7.88-1.39-17.71-9.2-21.34
		c-1.66-0.08-3.29-0.51-4.74-1.35c1.65,0.18,3.25,0.66,4.74,1.35c4.29,0.21,8.76-1.97,10.78-5.81c2.8-5.32,0.32-12.74-5.11-15.31
		c-3.65-1.73-7.85-1.35-11.91-0.88l-6.98,25.44C683.55,555.59,683.88,555.83,684.14,556.03z M631.56,285.85l-0.36-0.1h-3.97
		c-0.84,0.01-1.59,0.01-2.29,0.01c-0.9,0-1.73-0.01-2.54-0.03c-20.99-0.4-35.03-10.56-41.75-30.2c-0.88-2.56-2-5.91-2.98-9.35
		c-3.67-12.98-6.6-26.93-3.2-40.95c2.49-10.33,13.04-19.71,22.13-19.71c0.51,0,1.04,0.04,1.54,0.1c7.78,1.01,14.1,2.17,19.84,3.63
		c18.57,4.7,33.17,16.64,40.07,32.78c6.65,15.58,5.39,33.52-3.5,49.23c-5.24,9.25-10.27,15.41-17.83,15.41
		C635.11,286.69,633.37,286.41,631.56,285.85z M262.3,550.26c-2.93,2.26-6.77,6.04-6.14,12.78c0.34,3.61-0.86,7.15-2.14,10.9
		l-0.05,0.18l-0.11,0.31c-0.05,0.16-0.13,0.39-0.2,0.6c-0.01-0.21-0.01-0.43-0.03-0.6c0-0.23-0.01-0.44-0.01-0.66
		c-0.05-1.22,0.2-2.53,0.46-3.92c0.54-2.77,1.14-5.91-0.45-9.27c-0.04-0.11-0.05-0.4-0.06-0.59c-0.08-1.1-0.28-4.02-3.78-4.76
		c-0.46-0.1-0.91-0.15-1.33-0.15c-2.83,0-4.17,2.03-4.97,3.25c-0.15,0.21-0.29,0.44-0.45,0.65c-3.67,4.97-7.23,8.35-12.64,8.65
		c-0.5,0.04-1,0.1-1.49,0.16c-0.51,0.08-1.04,0.15-1.45,0.15c0.29-0.49,1.06-1.24,1.48-1.64l0.31-0.3
		c4.22-4.15,8.83-8.47,14.51-13.58c0.23-0.21,0.48-0.41,0.73-0.6c1.27-1,3.41-2.67,2.89-6c-0.63-4.12-3.95-4.29-5.38-4.36
		c-0.35-0.01-0.69-0.04-0.91-0.08c-0.6-0.14-1.22-0.26-1.83-0.39c-3.03-0.61-5.89-1.2-8.52-2.27c-0.35-0.14-0.71-0.28-1.09-0.41
		c-3.48-1.3-3.52-1.74-3.27-2.63c0.69-2.48,3.76-3.06,6.22-3.11h0.11c1.73,0,3.17,0.78,5.24,2.21c1.45,1.01,2.92,2.11,4.34,3.16
		c2.39,1.77,4.86,3.61,7.48,5.23c3.03,1.88,5.74,2.81,8.28,2.81c3.33,0,6.3-1.57,8.81-4.64c1.53-1.87,4.1-2.96,6.37-3.92
		c16.73-7.13,34.81-11.92,51.17-16.08c-0.9,1.73-2.56,2.67-5.43,3.35C296.24,530.01,277.7,538.38,262.3,550.26z M612.18,583.76
		c5.53,22.12,8.8,44.78,11.03,62.06c1.2,9.31,1.98,18.86,2.73,28.11c0.38,4.59,0.76,9.34,1.19,14.01c0.18,1.9-0.06,2.28-0.1,2.34
		c-0.02,0.01-0.39,0.41-2.37,0.51c-19.89,1.1-39.63,1.19-59.81,1.19h-11.69c-16.36,0-33.77,0.05-50.91,0.75
		c-10.53,0.43-21.8,0.63-35.46,0.63c-9.5,0-19.17-0.1-28.52-0.2c-9.36-0.09-19.05-0.19-28.57-0.19h-2.51v0.18
		c-3.45,0.01-6.88,0.03-10.31,0.04c-4.26,0.03-8.53,0.04-12.79,0.04c-6,0-10.98-0.04-15.63-0.13c-3.45-0.06-7.18-0.09-11.44-0.09
		c-4.01,0-8.03,0.03-12.04,0.05c-4,0.02-8.01,0.05-12,0.05c-9.8,0-21.39-0.14-33.14-1.15c-1.88-0.16-2.26-0.56-2.27-0.56
		c-0.08-0.13-0.18-0.6,0.06-2.44c0.56-4.21,1.13-8.41,1.7-12.61c1.05-7.79,2.14-15.84,3.15-23.77c4.54-35.92,11.24-68.34,20.5-99.12
		c5.94-19.75,13.96-42.57,28.43-62.11c0.65-0.89,1.02-1.22,1.18-1.34c0.15,0.06,0.55,0.28,1.32,0.89
		c26.44,21.19,56.61,31.49,92.25,31.49c11.59,0,23.97-1.13,36.79-3.37c26.63-4.64,52.23-15.54,78.28-33.32
		c1.5-1.03,2.73-1.55,3.65-1.55c1.09,0,2.24,0.81,4.11,2.88c12.83,14.26,20.68,31.45,28.23,49.28
		C603.87,552.03,608.33,568.41,612.18,583.76z"/>
	<path class="st1" d="M654.54,271.27c8.88-15.71,10.15-33.66,3.5-49.23c-6.9-16.14-21.5-28.08-40.07-32.78
		c-5.74-1.47-12.05-2.62-19.84-3.63c-0.5-0.06-1.03-0.1-1.54-0.1c-9.08,0-19.64,9.39-22.13,19.71c-3.41,14.02-0.48,27.97,3.2,40.95
		c0.98,3.43,2.1,6.79,2.98,9.35c6.72,19.64,20.76,29.8,41.75,30.2c0.81,0.01,1.64,0.03,2.54,0.03c0.7,0,1.45,0,2.29-0.01h3.97
		l0.36,0.1c1.8,0.56,3.55,0.84,5.15,0.84C644.27,286.69,649.3,280.52,654.54,271.27z M601.75,252.92h-0.19
		c-7.32,0-14.33-7.08-14.44-14.55c-0.11-7.66,6.57-14.84,14-15.06c0.11-0.01,0.24-0.01,0.36-0.01c3.51,0,7.09,1.62,9.85,4.44
		c2.92,2.98,4.54,6.9,4.45,10.76C615.61,245.66,608.66,252.8,601.75,252.92z M631.54,245.4c-3.55-0.05-7.17-1.72-9.95-4.57
		c-2.83-2.89-4.42-6.64-4.37-10.26c0.11-7.87,6.78-14.77,14.27-14.79h0.01c3.53,0,7.17,1.68,9.96,4.6c2.96,3.1,4.56,7.08,4.39,10.91
		c-0.33,7.26-7.22,14.11-14.17,14.11H631.54z"/>
	<path class="st1" d="M441,243.52h0.18c18.91,0.08,31.58,12.64,33.03,32.8l0.03,0.21l-0.03,0.21
		c-1.95,20.26-14.28,32.35-32.98,32.35h-0.58c-9.81-0.13-18.11-3.5-23.98-9.74c-5.51-5.85-8.51-14.02-8.45-22.99
		c0.01-1.57,0.12-3.1,0.29-4.59c-26.47,22.27-54.26,33.03-72.56,38.11c-7.19,12.33-12.12,25.15-14.87,38.62
		c-10.1,49.31,0.01,91.73,30.05,126.09c14.84,16.97,35.52,28.42,61.46,34.01c12.32,2.66,24.7,4.01,36.76,4.01
		c37.5,0,74.57-13.09,110.15-38.89c17.97-13.03,27.79-31.83,29.16-55.84c1.32-22.73-0.31-40.13-5.25-56.42
		c-2.32-7.66-5.61-13.75-10.07-18.61c-1.28-1.4-2.92-3.53-2.44-5.94c0.5-2.46,2.82-3.72,4.96-4.7
		c23.19-10.69,40.99-21.72,55.97-34.7c0.78-0.68,1.53-1.35,2.34-2.09c-1.8,0.11-3.62,0.18-5.44,0.18
		c-23.71,0-42.94-9.03-51.42-24.16c-6.16-10.99-9.13-22.94-11.43-34.22c-2-9.9-3.52-18.88-1.74-28.72
		c1.74-9.59,5.44-17.04,11.5-23.03c-4.27,0.01-8.47,0.64-12.54,1.24c-1.55,0.24-3.17,0.48-4.77,0.68
		c-26.97,3.41-53.37,11.57-78.9,19.47l-1.84,0.56c-8.21,2.54-16.24,5.43-24.1,8.64c-5.53,10.32-11.63,19.56-18.1,27.83
		C437.2,243.65,439.07,243.52,441,243.52z M426.83,386c-2.27,20.83-18.61,35.95-38.84,35.95c-9.16,0-18.33-3.2-26.51-9.22
		c-15.68-11.57-18.91-29.22-20.06-46.6l-0.01-0.08v-1.47c0-1.01-0.01-2.03,0.01-3.04c0.3-15.41,7.76-24.47,23.47-28.51
		c2.07-0.53,4.21-0.79,6.57-0.79c2.73,0,5.38,0.35,7.93,0.69c1.47,0.19,2.86,0.38,4.27,0.49c14.71,1.29,26.49,6.83,34.06,16.03
		C425.27,358.67,428.43,371.32,426.83,386z M554.3,369.7c3.37,0,6.05,1.03,7.97,3.08c2.89,3.11,2.64,6.9,2.49,9.17
		c-0.06,0.68-0.06,0.98-0.06,1.11c0.32,1.62,0.35,3.19,0.31,4.26c0.14,38.12-24.8,51.19-39.68,55.58
		c-10.52,3.11-20.93,4.69-30.93,4.69c-7.56,0-15.05-0.9-22.29-2.66c-15.67-3.83-27.38-11.2-35.78-22.53
		c-3.97-5.39-6.82-13.26,2.07-20.22l0.17-0.13c2.99-2.34,6.08-4.76,10.49-4.76c3.6,0,6.9,1.62,10.4,5.1
		c12.03,12.04,24.15,17.89,37.08,17.89c4.34,0,8.84-0.67,13.38-2l0.01,0c19.05-5.54,27.96-16.17,28.04-33.47
		c0.06-10.99,4.28-14.93,16.11-15.09L554.3,369.7z M476.8,240.81c0.95-10,4.56-18.09,10.22-23.69c5.66-5.6,13.37-8.71,22.52-8.71
		c0.29,0,0.56,0,0.84,0.01c9.85,0.2,18.14,3.56,23.98,9.69c5.69,5.98,8.7,14.37,8.45,23.63c-0.28,9.9-3.71,18.19-9.92,23.98
		c-5.76,5.36-13.82,8.31-22.67,8.31c-0.31,0-0.61,0-0.91-0.01c-9.69-0.21-17.83-3.71-23.56-10.12c-5.09-5.7-8.18-13.52-8.95-22.63
		l-0.03-0.23L476.8,240.81z"/>
	<path class="st0" d="M324.38,521.32c-16.36,4.16-34.45,8.95-51.17,16.08c-2.27,0.96-4.84,2.05-6.37,3.92
		c-2.51,3.07-5.48,4.64-8.81,4.64c-2.54,0-5.25-0.93-8.28-2.81c-2.62-1.62-5.09-3.46-7.48-5.23c-1.42-1.05-2.88-2.14-4.34-3.16
		c-2.07-1.43-3.51-2.21-5.24-2.21h-0.11c-2.46,0.05-5.53,0.63-6.22,3.11c-0.25,0.89-0.21,1.33,3.27,2.63
		c0.38,0.14,0.74,0.28,1.09,0.41c2.63,1.07,5.49,1.65,8.52,2.27c0.61,0.13,1.23,0.25,1.83,0.39c0.23,0.04,0.56,0.06,0.91,0.08
		c1.43,0.08,4.75,0.24,5.38,4.36c0.51,3.33-1.63,5-2.89,6c-0.25,0.19-0.5,0.39-0.73,0.6c-5.68,5.11-10.29,9.44-14.51,13.58
		l-0.31,0.3c-0.41,0.4-1.19,1.15-1.48,1.64c0.41,0,0.94-0.08,1.45-0.15c0.49-0.06,0.99-0.13,1.49-0.16
		c5.41-0.3,8.97-3.67,12.64-8.65c0.16-0.21,0.3-0.44,0.45-0.65c0.8-1.22,2.14-3.25,4.97-3.25c0.41,0,0.86,0.05,1.33,0.15
		c3.51,0.74,3.71,3.66,3.78,4.76c0.01,0.19,0.02,0.48,0.06,0.59c1.59,3.36,0.99,6.5,0.45,9.27c-0.26,1.39-0.51,2.71-0.46,3.92
		c0,0.23,0.01,0.44,0.01,0.66c0.01,0.18,0.01,0.39,0.03,0.6c0.08-0.21,0.15-0.44,0.2-0.6l0.11-0.31l0.05-0.18
		c1.28-3.75,2.48-7.29,2.14-10.9c-0.63-6.74,3.21-10.53,6.14-12.78c15.4-11.88,33.93-20.25,56.65-25.6
		C321.82,523.99,323.48,523.05,324.38,521.32z"/>
	<path class="st2" d="M568.97,487.02c-1.87-2.07-3.02-2.88-4.11-2.88c-0.91,0-2.14,0.53-3.65,1.55
		c-26.05,17.78-51.65,28.68-78.28,33.32c-12.82,2.24-25.2,3.37-36.79,3.37c-35.64,0-65.81-10.3-92.25-31.49
		c-0.76-0.61-1.17-0.83-1.32-0.89c-0.16,0.13-0.53,0.45-1.18,1.34c-14.47,19.55-22.49,42.37-28.43,62.11
		c-9.26,30.77-15.96,63.19-20.5,99.12c-1,7.93-2.09,15.98-3.15,23.77c-0.58,4.2-1.14,8.4-1.7,12.61c-0.24,1.84-0.14,2.32-0.06,2.44
		c0.01,0,0.39,0.4,2.27,0.56c11.75,1.01,23.34,1.15,33.14,1.15c4,0,8.01-0.03,12-0.05c4.01-0.03,8.03-0.05,12.04-0.05
		c4.26,0,7.99,0.03,11.44,0.09c4.65,0.09,9.62,0.13,15.63,0.13c4.26,0,8.53-0.01,12.79-0.04c3.43-0.01,6.87-0.03,10.31-0.04v-0.18
		h2.51c9.52,0,19.21,0.1,28.57,0.19c9.35,0.1,19.02,0.2,28.52,0.2c13.66,0,24.94-0.2,35.46-0.63c17.14-0.7,34.55-0.75,50.91-0.75
		h11.69c20.17,0,39.92-0.09,59.81-1.19c1.98-0.1,2.34-0.5,2.37-0.51c0.04-0.06,0.28-0.44,0.1-2.34c-0.43-4.67-0.81-9.42-1.19-14.01
		c-0.75-9.25-1.53-18.8-2.73-28.11c-2.23-17.28-5.5-39.95-11.03-62.06c-3.85-15.35-8.31-31.73-14.97-47.45
		C589.65,518.47,581.8,501.28,568.97,487.02z"/>
	<path class="st0" d="M641.62,535.09c-9.39-4.52-19.52-8.06-29.33-11.47c-3.92-1.37-7.96-2.77-11.93-4.24
		c1.54,3.78,4.01,6.16,8.08,8.01c4,1.82,8.04,3.71,11.95,5.53c12.1,5.65,24.63,11.49,37.44,15.94c6.14,2.13,9.61,6.55,10.64,13.52
		c0.16,1.13,0.28,2.26,0.39,3.35c0.31,3.07,0.6,5.98,1.98,8.48c0,0,0,0.01,0.01,0.01c0.18-0.86,0.4-1.7,0.61-2.52
		c0.15-0.56,0.29-1.11,0.42-1.66l-1.64-0.45l7.55-27.53c-2.74,0.61-5.51,0.92-8.35,0.92C659.42,542.98,650.14,539.18,641.62,535.09z
		"/>
	<path class="st0" d="M682.96,562.02c3.31,4.34,6.3,7.12,9.7,9.03c1.28,0.73,2.26,1.09,2.99,1.09c0.51,0,1.15-0.16,1.97-1.29
		c1.33-1.8,1.64-3.3-0.65-5.6c-2.31-2.33-5.05-4.08-7.96-5.94c-1.62-1.04-3.28-2.11-4.87-3.28c-0.26-0.19-0.59-0.44-0.95-0.72
		l-1.45,5.28C682.26,561.11,682.67,561.63,682.96,562.02z"/>
	<path class="st3" d="M537.97,384.79c-0.08,17.29-8.99,27.93-28.04,33.47l-0.01,0c-4.54,1.33-9.04,2-13.38,2
		c-12.92,0-25.05-5.85-37.08-17.89c-3.5-3.48-6.8-5.1-10.4-5.1c-4.41,0-7.5,2.42-10.49,4.76l-0.17,0.13
		c-8.89,6.97-6.04,14.84-2.07,20.22c8.4,11.33,20.11,18.7,35.78,22.53c7.23,1.77,14.73,2.66,22.29,2.66
		c10.01,0,20.42-1.58,30.93-4.69c14.88-4.39,39.82-17.46,39.68-55.58c0.04-1.07,0.01-2.64-0.31-4.26c0-0.13,0.01-0.42,0.06-1.11
		c0.15-2.27,0.4-6.06-2.49-9.17c-1.91-2.04-4.6-3.08-7.97-3.08l-0.23,0C542.24,369.86,538.03,373.81,537.97,384.79z M547.27,379.12
		c0.82-0.75,3.15-1.16,6.86-1.2h0.17c0.7,0,1.61,0.08,1.97,0.47c0.43,0.46,0.39,1.6,0.31,2.96c-0.11,1.31-0.13,2.32,0.06,3.24
		c0.15,0.7,0.2,1.58,0.17,2.49l0,0.19c0.15,32.83-21.11,44.01-33.8,47.76c-9.77,2.89-19.39,4.35-28.61,4.35
		c-6.9,0-13.74-0.82-20.34-2.43c-13.74-3.36-23.92-9.72-31.13-19.44c-3.07-4.16-2.95-6.16,0.53-8.89l0.17-0.13
		c2.46-1.92,3.92-3.01,5.43-3.01c0.47,0,1.88,0,4.6,2.71c13.64,13.65,27.66,20.29,42.88,20.29c5.12,0,10.4-0.78,15.69-2.33
		c22.43-6.52,33.86-20.42,33.95-41.31C546.19,381.69,546.56,379.76,547.27,379.12z"/>
	<path d="M512.22,426.14c-5.29,1.55-10.57,2.33-15.69,2.33c-15.21,0-29.24-6.64-42.88-20.29c-2.72-2.71-4.14-2.71-4.6-2.71
		c-1.51,0-2.97,1.09-5.43,3.01l-0.17,0.13c-3.48,2.73-3.6,4.72-0.53,8.89c7.21,9.72,17.39,16.08,31.13,19.44
		c6.59,1.61,13.44,2.43,20.34,2.43c9.22,0,18.84-1.47,28.61-4.35c12.69-3.75,33.95-14.93,33.8-47.76l0-0.19
		c0.04-0.91-0.02-1.79-0.17-2.49c-0.19-0.92-0.17-1.92-0.06-3.24c0.09-1.37,0.13-2.5-0.31-2.96c-0.36-0.39-1.27-0.47-1.97-0.47
		h-0.17c-3.71,0.05-6.04,0.45-6.86,1.2c-0.71,0.64-1.07,2.57-1.09,5.72C546.08,405.72,534.66,419.62,512.22,426.14z"/>
	<path class="st0" d="M383.65,333.42c-1.42-0.11-2.81-0.3-4.27-0.49c-2.56-0.34-5.2-0.69-7.93-0.69c-2.36,0-4.5,0.26-6.57,0.79
		c-15.71,4.03-23.17,13.09-23.47,28.51c-0.03,1.01-0.01,2.03-0.01,3.04v1.47l0.01,0.08c1.15,17.38,4.39,35.03,20.06,46.6
		c8.18,6.03,17.35,9.22,26.51,9.22c20.24,0,36.58-15.12,38.84-35.95c1.6-14.69-1.55-27.33-9.12-36.55
		C410.14,340.25,398.36,334.71,383.65,333.42z M394.21,412.01c-1.92,0.44-3.92,0.66-5.98,0.66c-12.39,0-25.44-8.27-31.01-19.66
		c-3.53-7.22-5.83-14.92-6.8-22.91c-1.14-9.23,0.66-17.08,5.1-22.09c3.52-3.98,8.52-6,14.89-6c0.93,0,1.89,0.05,2.87,0.14l0.3,0.03
		l0.3-0.05c0.78-0.11,1.6-0.18,2.51-0.18c2.87,0,5.94,0.59,9.18,1.22l1.18,0.23c21.25,4.02,31.13,15.78,31.1,37
		C417.83,396.04,408.33,408.74,394.21,412.01z"/>
	<path class="st0" d="M386.74,343.4l-1.18-0.23c-3.25-0.63-6.32-1.22-9.18-1.22c-0.9,0-1.73,0.06-2.51,0.18l-0.3,0.05l-0.3-0.03
		c-0.98-0.09-1.94-0.14-2.87-0.14c-6.37,0-11.36,2.02-14.89,6c-4.44,5.01-6.24,12.86-5.1,22.09c0.98,7.98,3.27,15.69,6.8,22.91
		c5.58,11.39,18.62,19.66,31.01,19.66c2.06,0,4.06-0.23,5.98-0.66c14.12-3.27,23.62-15.98,23.63-31.61
		C417.87,359.17,408,347.42,386.74,343.4z"/>
	<path class="st0" d="M485.75,263.89c5.73,6.42,13.87,9.91,23.56,10.12c0.3,0.01,0.6,0.01,0.91,0.01c8.85,0,16.9-2.94,22.67-8.31
		c6.22-5.79,9.65-14.08,9.92-23.98c0.25-9.26-2.76-17.66-8.45-23.63c-5.84-6.13-14.13-9.49-23.98-9.69
		c-0.28-0.01-0.55-0.01-0.84-0.01c-9.15,0-16.85,3.11-22.52,8.71c-5.66,5.6-9.27,13.7-10.22,23.69l-0.03,0.23l0.03,0.23
		C477.56,250.37,480.66,258.19,485.75,263.89z M509.89,217.89c0.31-0.01,0.61-0.03,0.93-0.03c5.94,0,12.23,3.1,16.84,8.3
		c2.93,3.31,4.76,7.03,5.35,10.66c3.28,2.6,5.39,6.61,5.39,11.13c0,7.84-6.36,14.2-14.2,14.2c-1.13,0-2.21-0.14-3.26-0.39
		c-3.19,1.82-6.61,2.84-9.92,2.84c-0.23,0-0.45-0.01-0.69-0.01c-13.87-0.58-23.57-10.24-23.57-23.47
		C486.75,228.38,496.48,218.62,509.89,217.89z"/>
	<path class="st4" d="M510.33,264.58c0.24,0,0.46,0.01,0.69,0.01c3.31,0,6.73-1.02,9.92-2.84c-5.07-1.2-9.08-5.1-10.43-10.11
		c-0.05,0-0.1,0-0.15-0.01c0.05,0,0.1,0,0.15,0.01c-0.32-1.18-0.5-2.41-0.5-3.7c0-7.84,6.36-14.2,14.2-14.2
		c3.33,0,6.39,1.15,8.81,3.08c-0.59-3.63-2.42-7.35-5.35-10.66c-4.61-5.2-10.9-8.3-16.84-8.3c-0.31,0-0.61,0.01-0.93,0.03
		c-13.41,0.73-23.14,10.49-23.13,23.22C486.76,254.34,496.46,264.01,510.33,264.58z M510.6,229.58c0.16,0,0.32,0.02,0.48,0.03
		c-0.22-0.01-0.44-0.03-0.67-0.02C510.48,229.58,510.54,229.58,510.6,229.58z"/>
	<path class="st0" d="M416.67,299.37c5.88,6.24,14.17,9.61,23.98,9.74h0.58c18.7,0,31.03-12.09,32.98-32.35l0.03-0.21l-0.03-0.21
		c-1.45-20.16-14.12-32.73-33.03-32.8H441c-1.93,0-3.8,0.14-5.6,0.39c-1.34,1.71-2.69,3.38-4.05,5.01l-0.02,0.03
		c-4.82,5.76-9.78,11-14.87,15.77c-2.62,2.48-5.27,4.83-7.94,7.07c-0.18,1.49-0.28,3.02-0.29,4.59
		C408.16,285.34,411.15,293.51,416.67,299.37z M424.4,259.8c4.24-4.27,10.04-6.64,16.33-6.64c9.93,0,17.85,5.2,21.41,13.22
		c5.47,1.97,9.39,7.2,9.39,13.35c0,7.84-6.36,14.2-14.2,14.2c-0.4,0-0.79-0.03-1.19-0.06c-4.24,3.62-9.46,5.85-14,5.85
		c-0.21,0-0.43-0.01-0.64-0.03c-13.92-0.65-23.64-10.27-23.66-23.38C417.83,269.94,420.16,264.08,424.4,259.8z"/>
	<path class="st4" d="M441.5,299.69c0.21,0.01,0.43,0.03,0.64,0.03c4.54,0,9.75-2.23,14-5.85c-7.29-0.6-13.02-6.7-13.02-14.14
		c0-7.84,6.36-14.2,14.2-14.2c1.69,0,3.31,0.31,4.82,0.85c-3.57-8.02-11.48-13.22-21.41-13.22c-6.29,0-12.09,2.37-16.33,6.64
		c-4.24,4.29-6.57,10.15-6.55,16.52C417.86,289.42,427.58,299.04,441.5,299.69z M446.01,262.14h0.25c-0.16,0-0.31,0-0.48,0.01
		C445.86,262.14,445.94,262.14,446.01,262.14z"/>
	<path class="st0" d="M601.49,223.29c-0.13,0-0.25,0-0.36,0.01c-7.43,0.23-14.11,7.41-14,15.06c0.1,7.47,7.12,14.55,14.44,14.55
		h0.19c6.9-0.11,13.86-7.26,14.03-14.42c0.09-3.86-1.53-7.78-4.45-10.76C608.58,224.91,605,223.29,601.49,223.29z"/>
	<path class="st0" d="M645.85,231.29c0.18-3.83-1.43-7.82-4.39-10.91c-2.79-2.92-6.43-4.6-9.96-4.6h-0.01
		c-7.49,0.01-14.16,6.92-14.27,14.79c-0.05,3.62,1.54,7.37,4.37,10.26c2.78,2.86,6.4,4.52,9.95,4.57h0.14
		C638.63,245.4,645.52,238.54,645.85,231.29z"/>
	<path class="st0" d="M510.6,229.58c-0.06,0-0.12,0-0.19,0c0.23,0,0.45,0.01,0.67,0.02C510.93,229.6,510.77,229.58,510.6,229.58z"/>
	<path class="st0" d="M510.36,251.64c0.05,0,0.1,0.01,0.15,0.01c0,0,0,0,0,0C510.45,251.64,510.41,251.64,510.36,251.64z"/>
	<path class="st0" d="M446.01,262.14c-0.08,0-0.15,0-0.23,0.01c0.16-0.01,0.31-0.01,0.48-0.01H446.01z"/>
	<path d="M523.85,234.97c-7.05,0-12.77,5.72-12.77,12.77c0,6.77,5.27,12.29,11.92,12.72c-0.67,0.48-1.37,0.9-2.07,1.3
		c1.05,0.25,2.14,0.39,3.26,0.39c7.84,0,14.2-6.36,14.2-14.2c0-4.51-2.11-8.53-5.39-11.13c0.13,0.77,0.22,1.53,0.23,2.28
		C530.91,236.57,527.57,234.97,523.85,234.97z"/>
	<path d="M510,247.95c0,1.28,0.18,2.52,0.5,3.7c0.2,0.01,0.39,0.02,0.58,0.02h-0.34c-0.08,0-0.16-0.01-0.24-0.02
		c1.35,5.01,5.36,8.92,10.43,10.11c0.7-0.4,1.39-0.83,2.07-1.3c-6.65-0.44-11.92-5.96-11.92-12.72c0-7.05,5.72-12.77,12.77-12.77
		c3.72,0,7.06,1.6,9.39,4.14c-0.01-0.75-0.1-1.52-0.23-2.28c-2.42-1.92-5.48-3.08-8.81-3.08C516.36,233.74,510,240.1,510,247.95z"/>
	<path d="M511.08,251.66c-0.19,0-0.38-0.01-0.58-0.02c0,0,0,0,0,0c0.08,0.01,0.16,0.02,0.24,0.02H511.08z"/>
	<path d="M458.37,266.72c-7.05,0-12.77,5.72-12.77,12.77c0,6.89,5.47,12.49,12.3,12.74c-0.56,0.57-1.15,1.12-1.76,1.64
		c0.39,0.03,0.79,0.06,1.19,0.06c7.84,0,14.2-6.36,14.2-14.2c0-6.15-3.92-11.37-9.39-13.35c0.16,0.36,0.32,0.71,0.46,1.08
		C461.27,266.99,459.85,266.72,458.37,266.72z"/>
	<path d="M443.12,279.73c0,7.44,5.73,13.54,13.02,14.14c0.61-0.52,1.2-1.07,1.76-1.64c-6.83-0.25-12.3-5.85-12.3-12.74
		c0-7.05,5.72-12.77,12.77-12.77c1.49,0,2.91,0.27,4.23,0.73c-0.14-0.37-0.3-0.72-0.46-1.08c-1.51-0.54-3.12-0.85-4.82-0.85
		C449.48,265.52,443.12,271.88,443.12,279.73z M446.4,285.5c-0.11,0-0.24,0.03-0.36,0.03c-0.14,0-0.29-0.01-0.44-0.01
		C445.87,285.52,446.14,285.51,446.4,285.5z"/>
	<path d="M446.04,285.52c0.13,0,0.25-0.03,0.36-0.03c-0.26,0.01-0.53,0.03-0.8,0.01C445.75,285.51,445.9,285.52,446.04,285.52z"/>
	<path class="st0" d="M297.44,617.43c-1.02,0.39-2.1,0.65-3.18,0.85c-0.32,0.06-0.64,0.11-0.96,0.16c0,0-0.01,0-0.02,0
		c-0.75,0.09-1.5,0.16-2.25,0.21c-0.58,0.04-1.17,0.06-1.76,0.07c0.15-0.51,0.28-1.02,0.37-1.55c0.51-3.01,0.8-6.39-0.14-9.36
		c-1.12-3.49-3.85-5.9-7.49-6.39c-2.99-0.4-6.08,0.6-8.59,2.22c-2.31,1.49-4.55,3.53-5.82,6c-1.28,2.5-1.58,5.29-1.03,8.04
		c0.36,1.85,1.24,3.41,2.41,4.72c-0.24,0.02-0.48,0.05-0.72,0.07c-0.69,0.06-1.38,0.1-2.08,0.11c-1.35,0.04-2.7,0-4.06-0.11
		c-0.32-0.02-0.65-0.06-0.98-0.09c-0.1-0.01-0.42-0.05-0.62-0.07c-0.15-0.02-0.3-0.04-0.36-0.06c-0.38-0.06-0.76-0.12-1.13-0.2
		c-1.35-0.25-2.7-0.58-4.02-0.96c-1.31-0.39-2.6-0.85-3.88-1.35c-0.03-0.01-0.06-0.02-0.08-0.02c-0.28-0.13-0.56-0.25-0.84-0.38
		c-0.64-0.3-1.26-0.61-1.88-0.94c-1.17-0.62-2.3-1.31-3.39-2.04c-0.21-0.15-0.44-0.3-0.65-0.46c-0.47-0.39-0.93-0.8-1.37-1.21
		c-0.88-0.85-1.62-1.79-2.43-2.69c-0.04-0.06-0.08-0.11-0.12-0.16c-0.18-0.26-0.36-0.53-0.54-0.79c-0.38-0.57-0.74-1.17-1.08-1.77
		c-0.3-0.56-0.6-1.12-0.86-1.7c-0.03-0.07-0.06-0.14-0.09-0.21c-0.1-0.26-0.21-0.53-0.3-0.8c-0.2-0.58-0.37-1.18-0.52-1.78
		c-0.07-0.3-0.12-0.59-0.18-0.89c-0.01-0.02-0.01-0.02-0.01-0.04c-0.06-0.58-0.08-1.17-0.06-1.75c0.01-0.16,0.02-0.31,0.03-0.46
		c0.02-0.15,0.04-0.33,0.06-0.39c0.52-2.52-0.73-5.44-3.44-6.07c-2.46-0.56-5.51,0.75-6.06,3.45c-1.44,6.99,1.24,13.91,5.49,19.41
		c4.12,5.34,9.62,8.78,15.84,11.25c5.98,2.36,12.7,3.51,19.12,3.05c4.83-0.36,9.9-1.52,14.05-4.14c1.85,0.25,3.72,0.35,5.54,0.38
		c3.03,0.04,6.17-0.15,9.17-0.74c0.6-3.56,1.23-7.11,1.89-10.66C298.1,617.22,297.77,617.29,297.44,617.43z M279.9,610.11
		c0.01,0,0.07,0.23,0.1,0.29C279.91,610.25,279.85,610.11,279.9,610.11z M276.04,614.79c-0.01-0.03,0.09-0.21,0.12-0.25v-0.01
		c0.02-0.34,0.02-0.24,0.02-0.02c-0.01,0.07-0.01,0.14-0.02,0.21v-0.19C276.11,614.7,276.05,614.83,276.04,614.79z M276.1,615.14
		c0-0.01,0-0.02-0.01-0.02c0.02-0.08,0.04-0.2,0.06-0.3C276.14,614.95,276.13,615.06,276.1,615.14z M276.27,615.79
		c0-0.01,0-0.01,0-0.02c0.01,0.02,0.02,0.04,0.03,0.06C276.29,615.82,276.28,615.8,276.27,615.79z M280.23,613.46
		c-0.02,0.27-0.03,0.54-0.06,0.82c-0.01,0.04-0.02,0.13-0.02,0.23c-0.02,0.11-0.03,0.22-0.05,0.28c-0.05,0.27-0.11,0.54-0.16,0.81
		c-0.09,0.35-0.2,0.69-0.3,1.03c-0.15,0.28-0.29,0.55-0.45,0.81c-0.01,0.02-0.03,0.05-0.05,0.07c-0.11-0.03-0.23-0.07-0.34-0.11
		c-0.1-0.03-0.19-0.07-0.29-0.11c-0.55-0.26-1.09-0.53-1.6-0.88c-0.17-0.16-0.34-0.32-0.5-0.48c-0.07-0.12-0.14-0.25-0.2-0.37
		c-0.02-0.05-0.04-0.11-0.05-0.16c0-0.01,0-0.01,0-0.02c-0.01-0.21-0.01-0.43,0-0.63c0.02-0.1,0.02-0.18,0.03-0.21
		c0.02-0.06,0.03-0.11,0.06-0.17c0.16-0.25,0.32-0.5,0.48-0.76c0.15-0.16,0.3-0.32,0.44-0.47c0.16-0.16,0.34-0.33,0.52-0.48
		c0.06-0.06,0.21-0.19,0.34-0.3c0.02-0.02,0.06-0.04,0.07-0.05c0.2-0.14,0.4-0.27,0.61-0.39c0.34-0.21,0.72-0.38,1.08-0.57
		c0.13-0.05,0.26-0.08,0.39-0.12c0.02,0.15,0.04,0.3,0.05,0.43C280.27,612.27,280.26,612.87,280.23,613.46z"/>
	<path class="st0" d="M298.46,627.44c0.54-0.14,1.08-0.3,1.6-0.51c1.23-0.48,2.25-1.08,2.95-2.27c0.62-1.06,0.88-2.61,0.49-3.79
		c-0.65-2.02-2.8-3.88-5.04-3.68c0,0-0.01,0-0.01,0c-0.66,3.55-1.29,7.1-1.89,10.66c0.03-0.01,0.06-0.01,0.09-0.01
		C297.25,627.72,297.86,627.59,298.46,627.44z"/>
	<path class="st0" d="M276.17,614.52C276.17,614.52,276.17,614.52,276.17,614.52c0,0.01-0.01,0.01-0.01,0.02
		C276.17,614.53,276.17,614.52,276.17,614.52C276.17,614.51,276.17,614.52,276.17,614.52z"/>
	<path class="st6" d="M758.37,276.28l-17.14,17.79l-24.37-4.04l11.62,21.8l-11.37,21.93l18.74-3.33l-54.93,200.23
		c2.55-0.13,5.09-0.33,7.63-0.62c0.53-0.06,1.07-0.13,1.61-0.19l54.17-197.47l14.45,14.65l3.41-24.47l22.09-11.06l-22.22-10.81
		L758.37,276.28z"/>
	<path class="st6" d="M680.92,530.68l-3.12,11.39c0.95-0.21,1.89-0.45,2.83-0.74c-0.43,0.46-0.81,0.99-1.17,1.57
		c-3.54,5.9,1.08,10.34,3.72,12.41l6.98-25.44c-0.54,0.06-1.08,0.13-1.61,0.19C686.01,530.35,683.47,530.55,680.92,530.68z"/>
	<path class="st6" d="M677.61,558.71c-0.75,0-1.52,0.16-2.28,0.48c-3.66,1.52-3.25,5.2-3.07,6.77l0.01,0.18
		c0.14,1.28-0.07,2.58-0.38,3.92l6.74,1.85l3.1-11.31C680.78,559.64,679.43,558.71,677.61,558.71z"/>
	<path class="st6" d="M671.89,570.04c0.32-1.34,0.52-2.64,0.38-3.92l-0.01-0.18c-0.18-1.57-0.59-5.25,3.07-6.77
		c0.76-0.31,1.53-0.48,2.28-0.48c1.82,0,3.17,0.93,4.12,1.88l1.45-5.28c-2.64-2.07-7.26-6.51-3.72-12.41
		c0.35-0.58,0.74-1.1,1.17-1.57c-0.94,0.28-1.89,0.53-2.83,0.74l-7.55,27.53L671.89,570.04z"/>
	<path class="st7" d="M319,301.21l-25.95-89.33L280.2,167.7l-20.3-69.89l12.79,7.51l39.58,23.3l79.06,46.5L426.85,196l17.84,10.5
		c-0.75,1.47-1.51,2.91-2.28,4.33c5.73-2.62,11.52-5.09,17.36-7.42l0.83-1.74l-25.53-15.02l-39.55-23.27l-79.18-46.57l-35.33-20.78
		l-41.45-24.4l30.1,103.59l10.44,35.95l30.1,103.54l5.09-0.54c0.64-0.07,3.67-0.42,8.47-1.38c2.55-5.08,5.37-10,8.45-14.75
		C326.69,299.62,322.16,300.61,319,301.21z"/>
	<path class="st7" d="M347.46,292.99c-5.61,2.13-10.76,3.79-15.25,5.06c-3.07,4.76-5.9,9.67-8.45,14.75
		c3.29-0.65,7.42-1.59,12.19-2.92C339.3,304.16,343.13,298.53,347.46,292.99z"/>
	<path class="st7" d="M433.91,224.95c6.39-3.2,12.93-6.16,19.59-8.88c1.62-3.02,3.19-6.14,4.71-9.35l1.58-3.31
		c-5.85,2.33-11.64,4.8-17.36,7.42C439.72,215.81,436.88,220.51,433.91,224.95z"/>
	<path class="st7" d="M429.19,231.69c-9.37,12.74-19.75,23.23-30.32,31.82l-0.02,0c-17.88,14.58-36.3,23.76-51.39,29.49
		c-4.33,5.54-8.16,11.16-11.51,16.89c18.3-5.08,46.08-15.84,72.56-38.11c0.92-7.8,4.04-14.37,8.85-19.2
		c4.61-4.61,10.76-7.64,18.03-8.67c6.47-8.27,12.57-17.52,18.1-27.83c-6.66,2.72-13.19,5.68-19.59,8.88
		C432.37,227.26,430.8,229.51,429.19,231.69z"/>
	<path class="st7" d="M431.32,248.94l0.02-0.03c1.37-1.63,2.72-3.3,4.05-5.01c-7.27,1.03-13.42,4.06-18.03,8.67
		c-4.82,4.83-7.93,11.41-8.85,19.2c2.66-2.24,5.31-4.59,7.94-7.07C421.54,259.94,426.51,254.71,431.32,248.94z"/>
	<path class="st0" d="M386.07,243.12c-0.12-12.27,9.46-22.57,21.83-23.22c4.12-0.22,8.05,0.68,11.49,2.41
		c7.54-4.09,15.22-7.91,23.02-11.47c0.77-1.42,1.54-2.86,2.28-4.33L426.85,196c-3.29,2.16-7.14,3.49-11.34,3.71
		c-12.7,0.67-23.55-9.1-24.22-21.8c-0.05-0.95-0.05-1.88,0.02-2.79l-79.06-46.5c-3.92,5.64-10.3,9.48-17.7,9.87
		c-12.7,0.67-23.53-9.1-24.19-21.8c-0.21-4.08,0.64-7.94,2.32-11.36l-12.79-7.51l20.3,69.89c2-0.72,4.15-1.15,6.38-1.27
		c12.7-0.67,23.53,9.1,24.19,21.8c0.59,11.31-7.07,21.14-17.72,23.64L319,301.21c3.16-0.6,7.69-1.59,13.21-3.15
		C346.06,276.59,364.94,258.36,386.07,243.12z M351.63,166.1c12.7-0.67,23.54,9.09,24.21,21.79s-9.09,23.54-21.79,24.21
		c-12.7,0.67-23.54-9.09-24.21-21.79S338.93,166.76,351.63,166.1z M338.52,277.36c-12.7,0.67-23.54-9.09-24.21-21.79
		c-0.67-12.7,9.09-23.54,21.79-24.21c12.7-0.67,23.54,9.09,24.21,21.79C360.98,265.85,351.22,276.69,338.52,277.36z"/>
	<path class="st0" d="M368.35,270.46c6.51-6.04,13.27-11.73,20.24-17.08c-1.43-2.79-2.31-5.92-2.49-9.26
		c-0.02-0.34-0.02-0.67-0.03-1c-21.13,15.24-40.01,33.47-53.86,54.94c4.49-1.27,9.64-2.93,15.25-5.06
		C353.46,285.32,360.41,277.83,368.35,270.46z"/>
	<path class="st0" d="M427.05,228.51c2.27-1.22,4.56-2.4,6.86-3.56c2.97-4.45,5.81-9.15,8.51-14.12
		c-7.8,3.56-15.48,7.39-23.02,11.47C422.37,223.8,424.98,225.92,427.05,228.51z"/>
	<path class="st0" d="M388.59,253.38c-6.97,5.36-13.73,11.04-20.24,17.08c-7.94,7.37-14.89,14.86-20.89,22.54
		c15.09-5.73,33.51-14.91,51.39-29.49C394.45,261.33,390.84,257.77,388.59,253.38z"/>
	<path class="st0" d="M429.19,231.69c1.6-2.18,3.18-4.43,4.72-6.74c-2.31,1.15-4.59,2.34-6.86,3.56
		C427.84,229.51,428.57,230.57,429.19,231.69z"/>
	<path class="st8" d="M270.37,116.68c0.67,12.7,11.49,22.47,24.19,21.8c7.4-0.39,13.79-4.23,17.7-9.87l-39.58-23.3
		C271,108.74,270.15,112.61,270.37,116.68z"/>
	<path class="st8" d="M310.76,188.24c-0.67-12.7-11.49-22.47-24.19-21.8c-2.22,0.12-4.38,0.55-6.38,1.27l12.85,44.17
		C303.69,209.38,311.36,199.55,310.76,188.24z"/>
	
		<ellipse transform="matrix(0.9202 -0.3915 0.3915 0.9202 -45.866 153.2118)" class="st8" cx="352.84" cy="189.1" rx="23.03" ry="23.03"/>
	<path class="st8" d="M360.31,253.15c-0.67-12.7-11.5-22.46-24.21-21.79c-12.7,0.67-22.46,11.51-21.79,24.21
		c0.67,12.7,11.51,22.46,24.21,21.79C351.22,276.69,360.98,265.85,360.31,253.15z"/>
	<path class="st8" d="M419.39,222.31c-3.44-1.73-7.37-2.62-11.49-2.41c-12.37,0.65-21.95,10.95-21.83,23.22
		c10.41-7.51,21.36-14.3,32.53-20.39C418.87,222.59,419.13,222.45,419.39,222.31z"/>
	<path class="st8" d="M419.39,222.31c-0.26,0.14-0.53,0.28-0.79,0.42c-11.17,6.09-22.12,12.88-32.53,20.39c0,0.33,0.01,0.67,0.03,1
		c0.18,3.34,1.06,6.47,2.49,9.26c12.16-9.35,24.99-17.65,38.46-24.87C424.98,225.92,422.37,223.8,419.39,222.31z"/>
	<path class="st8" d="M388.59,253.38c2.25,4.4,5.86,7.95,10.26,10.13l0.02,0c10.57-8.59,20.94-19.08,30.32-31.82
		c-0.62-1.13-1.35-2.18-2.15-3.18C413.58,235.72,400.75,244.03,388.59,253.38z"/>
	<path class="st8" d="M391.29,177.91c0.67,12.7,11.52,22.47,24.22,21.8c4.2-0.22,8.05-1.55,11.34-3.71l-35.53-20.89
		C391.24,176.03,391.24,176.96,391.29,177.91z"/>
	<path class="st2" d="M286.4,832.09c2.6-2.6,5.82-9.79,2.14-9.79c-3.21,0-2.75,5.51-5.2,5.2c-2.45-0.15-1.68-5.2-5.05-4.44
		c-3.37,0.92,3.52,14.08,3.52,14.08S283.8,834.54,286.4,832.09z"/>
	<path class="st2" d="M570.14,857.34c-0.76-0.61-2.14-0.15-2.91,0.31c-4.13,2.29-8.11,5.05-11.94,8.11l-0.46-3.21
		c-0.46-3.21-1.07-12.24-5.36-12.7c-3.06-0.46-6.43,0.15-9.34,1.07c-2.29,0.61-4.44,2.3-5.51,5.36c-1.07,2.75-1.99,5.36-3.06,7.96
		c-1.07,2.6-2.3,5.05-4.29,7.19c-0.77,0.92-2.14,2.3-3.37,2.91c-0.46-0.31-0.76-0.77-1.07-1.22c-0.92-1.53-1.38-3.37-1.53-5.2
		c-0.46-3.83,0-7.65,0.92-11.33c1.07-4.44,2.75-8.72,5.05-12.7c0.92-1.53-4.44-0.92-4.9-0.92c-1.84,0.31-3.52,0.61-5.2,1.07
		c-0.77,0.31-2.45,0.61-2.91,1.38c-2.6,4.44-4.59,9.49-5.66,14.39c-0.24,1.05-0.45,2.12-0.61,3.18c-1.19,2.44-2.73,4.7-4.59,6.46
		c-1.84,1.68-3.21,2.14-4.74,2.14c-2.3-1.38-2.14-8.26-1.84-14.69c0-1.68,0.46-4.44-0.31-5.82c-0.92-1.99-7.8-0.77-8.88,0.31
		c-3.21,3.21-8.42,18.67-13.31,21.43c-4.13-1.22-3.83-8.88-2.45-14.85c1.07-4.44,2.3-11.33,7.35-11.33c1.38,0,1.07,1.07,1.68,2.6
		c0.76,1.84,4.74,0.46,4.74-1.53c0-3.52-7.5-5.36-12.55-4.29c-6.84,1.49-11.35,5.73-13.71,14.52c-0.16,0.18-0.28,0.39-0.36,0.64
		c-0.76,2.14-1.53,3.98-2.6,6.27c-1.68,3.83-3.98,7.81-7.35,10.56c-0.15,0.15-0.46,0.31-0.77,0.61l-0.77-1.68
		c-0.92-2.14-1.53-4.59-1.99-6.89c-0.92-4.59-1.38-9.34-1.84-14.08l0.77-0.92c8.11-11.33,17.45-25.25,17.14-39.79
		c0-3.06-0.31-7.04-2.75-9.49c-1.84-1.99-4.59-1.84-7.19-1.07c-7.65,0.46-14.54,3.98-17.75,11.48c-3.67,8.72-3.98,19.28-4.13,28.77
		c0,0.15,0.15,0.31,0.15,0.61h-0.77c-3.52,0.31-7.35,1.07-10.56,2.75c-6.28,3.14-9.31,10.54-10.25,17.4l-0.46,0.81
		c-1.99,3.21-4.13,6.43-6.73,9.18c-1.84,1.99-2.75-3.06-3.21-7.04s0-7.19,0.31-10.71c0.15-2.6,0.61-5.51-0.46-7.96
		c-1.07-3.21-4.29-4.13-7.35-4.29c-1.99-0.15-3.52,0.61-6.28,0.61c-7.04,0-9.34,7.65-10.56,13.62v0.15
		c-0.46-2.75-0.77-5.51-0.92-8.26c10.25-7.19,18.67-19.44,21.58-31.68c0.92-4.44,1.53-10.41-0.46-14.69
		c-1.53-3.67-6.28-4.59-9.49-4.59c-5.82,0-13.01,3.37-17.14,8.26c-4.38,5.02-6.29,11.75-7.26,18.48c-2.63-0.09-5.26-0.07-7.89,0.04
		c-2.45,0-5.05,0.15-7.5,0.31c0.46-4.9,1.22-10.41,1.38-11.48c0.15-0.77-13.01-0.61-13.47,2.45c-0.46,3.21-0.77,6.43-1.22,9.79
		c-5.51,0.31-6.89,0.31-8.88,0.31c-0.61,0-1.68-0.15-1.38-1.99c0.77-1.99-3.21-1.68-3.67-0.31c-1.07,3.37,1.38,4.59,4.74,4.9
		c2.45,0.15,8.11-0.46,8.88-0.46l-1.38,14.54c-0.62,6.89-1.31,13.97-1.64,21.05c-2.79,6.5-7.98,11.25-10.15,11.25
		c-0.77-0.77-1.07-1.99-1.38-3.06c-0.61-4.13,0.92-8.26,1.99-12.09c1.22-3.98,2.6-8.11,2.75-12.24c0-1.22,0.15-2.6-0.46-3.67
		c-0.92-1.53-2.6-1.68-4.13-1.68c-3.06-0.15-12.24,1.68-11.94,1.68c0.15-2.14,0.31-4.29,0.31-6.43c0-2.6-0.15-5.66-1.38-8.11
		c-1.68-3.37-6.28-3.98-9.34-2.3c-3.98,2.14-5.36,7.04-4.13,11.33c0.76,2.6,2.14,4.74,4.29,6.28c1.68,1.38,3.83,1.99,5.97,2.14
		c-0.46,3.37-0.92,8.72-2.14,11.78c-0.53,1.44-0.75,2.45-0.76,3.17c-0.24,0.43-0.5,0.86-0.76,1.27c-3.52,5.51-5.51,7.8-7.35,8.57
		c-3.06-4.44-1.99-20.81-0.92-28.62c0.15-1.22-6.43-0.31-6.89-0.15c-2.75,0.46-6.28,1.38-6.58,2.6c-0.38,2.52-0.69,5.59-0.87,8.79
		c-3.16,0.72-6.42,1.51-9.69,2.38c0-0.31,0-0.46-0.15-0.77c-1.53-8.26-6.12-13.77-14.85-14.39c-2.45-0.15-5.05,0-7.5,0.46
		c11.63-10.25,43.16-32.75,18.82-42.09c-1.99-0.77-4.59-0.92-6.73-0.77c-7.19,0.31-11.94,5.05-15.3,10.41l-4.44,8.88
		c0,0.31,1.07-8.72,1.22-9.49c0.76-7.19,0.31-15-7.04-16.22c-2.91-0.31-13.62,3.06-11.48,3.52c10.25,1.38,3.37,27.85,2.45,33.52
		c-0.92,6.12-7.35,30-0.61,32.75c1.22,0.61,5.05,0,6.12-0.46c3.37-1.07,6.58-2.6,6.73-2.6c-1.99-0.77-2.45-5.05-2.14-10.41
		c0-0.46,0.15-0.92,0.15-1.38c2.6-0.15,5.05-1.07,7.5-1.53c7.04-1.22,11.02,2.45,13.16,9.64c0.46,1.68,0.77,3.37,0.92,5.05
		c-9.34,3.52-18.06,8.11-24.95,14.39c-6.12,5.51-10.56,13.47-5.2,21.12c3.83,5.66,11.48,6.43,18.21,4.13
		c17.75-4.29,27.39-23.42,25.56-41.17c2.98-0.93,6.04-1.71,9.12-2.45c-0.22,6.33,0.08,12.73,1.29,16.07c0.92,2.3,2.45,3.21,4.9,3.21
		c1.84,0.15,3.83-0.15,5.66-0.46c7.96-0.61,13.16-8.88,16.22-15.3c0.46-0.77,0.77-1.53,1.07-2.3c0.23-0.54,0.03-0.91-0.36-1.12
		c0.94-3.25,1.41-7.14,1.73-10.36l2.6-0.46c0.77,1.22,0.77,4.29,0.31,6.28c-0.61,4.29-1.99,8.42-3.21,12.55
		c-1.38,4.75-3.06,14.23,3.67,14.54c2.91,0.15,6.58-0.31,9.34-1.22c3.46-1.13,7.37-3.45,10.58-7.37c-0.01,4.54,0.19,9.06,0.74,13.49
		c0.46,4.13,1.07,9.34,6.12,9.79c2.3,0.15,5.66-0.46,8.11-1.22c7.02-2.3,14.04-9.45,19.56-21.58c0.98,3.62,2.17,6.5,3.54,8.11
		c0.92,1.22,5.66,0.76,7.96,0c1.99-0.61,5.97-1.68,5.51-2.3c-1.84-2.14-2.75-5.05-3.37-7.96c0-1.38,0.15-2.75,0.31-4.13
		c0.46-4.29,1.07-8.72,2.45-12.86c0.46-1.38,1.38-4.44,3.06-5.66c3.98,2.14,3.06,6.73,2.75,13.62c-0.31,5.51,0,13.01,2.6,16.68
		c1.38,1.68,3.37,1.53,5.36,1.53c2.3-0.15,5.2-0.46,7.5-1.38c3.21-1.22,4.75-3.67,7.35-6.73c0.28-0.39,0.54-0.78,0.81-1.17
		c0.26,3.06,1.34,5.91,4.7,6.83c1.07,0.31,2.91,0.15,4.13,0c0.61-0.15,1.22-0.31,1.99-0.31c5.2,0,9.49-3.98,12.86-7.81
		c0.15,0.15,0.15,0.46,0.15,0.61c0.61,3.37,1.53,11.17,6.12,11.78c2.75,0.46,5.82-0.15,8.57-0.92c0.15,0,0.31,0,0.31-0.15h0.46
		c0.31-0.15,1.99-0.76,2.6-1.38c3.14-1.85,5.63-4.85,7.64-8.13c0.38,3.42,2.17,5.81,6.59,6.45c3.98,0.61,12.24,0.31,15.92-4.9
		c4.13-5.97,5.05-9.79,8.57-15.46c-0.15,4.75-0.92,9.79,1.07,14.08c2.75,6.12,10.87,4.9,15.61,1.38c0.85-0.65,1.62-1.41,2.36-2.22
		c0.08,0.85,0.2,1.69,0.39,2.52c0.31,1.84,0.92,3.52,2.3,4.9c1.22,1.38,3.06,1.53,4.74,1.68c3.83,0.15,8.72-0.92,11.79-2.75
		c3.06-1.99,5.2-4.74,6.73-7.8c1.68-2.75,5.05-12.24,5.36-13.01c0.46,1.22,0.77,2.75,0.92,3.06c0.61,2.75,1.22,5.51,1.68,8.42
		c0.46,3.37,0.76,6.89,0.92,10.41l-0.77,0.77c-10.25,10.41-18.21,25.1-18.21,39.95c0,4.59,0.92,10.87,6.58,10.87
		c2.45,0,6.43-0.92,9.79-2.75c5.05-2.75,7.8-7.19,9.95-12.09c3.52-7.81,5.2-16.68,5.97-25.1c0.61-6.43,0.46-13.01-0.15-19.44
		c1.68-1.38,3.37-2.6,5.2-3.98c2.91-1.99,5.82-4.13,8.88-5.82C570.6,858.72,570.75,857.8,570.14,857.34z M230.84,842.19
		c0.61-3.21,1.22-6.43,2.14-9.34c2.14-6.89,7.04-25.25,15.76-29.23C268.8,812.35,243.24,831.78,230.84,842.19z M249.82,877.55
		c-1.38,5.05-4.9,14.85-10.25,18.98s-13.47,3.52-16.22-4.13c-1.38-3.83-0.61-7.5,1.53-10.71c4.74-7.5,14.08-11.94,21.89-15.46
		c1.53-0.61,3.06-1.22,4.59-1.84C251.51,868.82,250.89,873.41,249.82,877.55z M300.94,839.74c0,1.53-0.15,3.21-0.31,4.75
		c-0.76-0.15-1.53-0.31-2.3-0.77c-3.52-1.99-5.2-6.73-4.59-10.71c0.31-2.3,1.07-3.06,1.53-3.37c1.53-1.07,3.67-0.61,4.74,2.14
		C300.94,834.23,301.09,837.14,300.94,839.74z M344.71,887.95c-4.13-3.67-3.52-12.4-3.21-24.18c0.46-12.09,1.53-24.03,2.75-35.97
		c4.44-0.15,8.72-0.31,13.16-0.15c0.64,0,1.41,0.01,2.19,0.03c-0.22,2.01-0.38,4.01-0.51,5.94c-0.66,9.02,0.01,22,1.86,32.14
		C356.33,878.28,349.37,886.53,344.71,887.95z M372.25,842.19c-0.15-9.18,0.31-19.13,3.06-28.01c1.07-3.37,2.6-6.58,4.9-9.18
		c3.06-3.52,5.36-3.83,7.04-3.52c5.2,0.92,4.29,12.7,2.29,19.13c-2.91,9.33-9.18,18.98-17.14,25.25
		C372.41,844.64,372.25,843.42,372.25,842.19z M427.81,868.21c-1.07,1.07-2.75,2.91-4.44,4.13l-0.15-0.15
		c-0.46-0.46-0.76-1.38-1.07-1.99c-0.76-2.29-0.76-4.74-0.61-7.19c0.31-4.59,1.53-9.34,4.13-13.32c0.15-0.15,0.31-0.31,0.31-0.46
		c0.46,0.77,0.61,1.38,0.77,2.14c0.15,0.61,1.99,0.61,2.14,0.61c0.46,0,0.76,0,1.22-0.15c0.15,4.29,0.46,8.42,1.07,12.55
		C430.1,865.61,429.03,866.98,427.81,868.21z M443.42,846.32c-0.31-7.8,0-15.61,1.07-23.42c0.61-4.13,1.38-8.42,3.06-12.24
		c0.77-1.53,1.68-3.06,2.91-4.29l1.38-1.38c0.76-0.31,1.68-0.76,2.45-0.61c3.67,0.92,3.52,9.49,3.21,12.55
		c-0.46,5.66-2.6,11.02-5.05,16.07c-2.6,5.36-5.66,10.41-8.88,15.3C443.42,847.7,443.42,846.94,443.42,846.32z M542.44,890.71
		c-0.61,7.96-2.14,16.07-5.2,23.42c-1.68,3.98-3.98,8.26-7.5,11.02c-2.29-1.99-2.29-7.04-2.14-9.34c0.31-6.73,2.3-13.47,5.05-19.59
		c2.6-5.66,6.12-10.56,10.1-15.15C542.74,884.28,542.74,887.49,542.44,890.71z"/>
	<path class="st2" d="M672.37,832.09c2.6-2.6,5.82-9.79,2.14-9.79c-3.21,0-2.75,5.51-5.2,5.2c-2.45-0.15-1.68-5.2-5.05-4.44
		c-3.37,0.92,3.52,14.08,3.52,14.08S669.77,834.54,672.37,832.09z"/>
	<path class="st2" d="M752.26,857.04c-0.92,0-2.14,0.31-2.6,1.22c-1.07,1.99-2.45,3.98-3.83,5.82c-2.91,4.13-7.19,9.18-11.79,11.48
		c-5.05-5.05-6.58-15.92-6.89-23.57c5.36-6.43,9.95-14.08,13.16-21.89c2.6-6.12,4.74-13.01,4.29-19.9c-0.15-4.59-2.3-9.64-7.96-9.64
		c-8.26,0-13.62,3.52-16.84,11.48c-3.52,8.88-5.05,18.52-5.82,28.01c-0.65,7.5-0.62,15.11,0.5,22.55
		c-2.56,7.28-8.42,12.8-10.75,12.8c-0.77-0.77-1.07-1.99-1.38-3.06c-0.61-4.13,0.92-8.26,1.99-12.09c1.22-3.98,2.6-8.11,2.75-12.24
		c0-1.22,0.15-2.6-0.46-3.67c-0.92-1.53-2.6-1.68-4.13-1.68c-3.06-0.15-12.24,1.68-11.94,1.68c0.15-2.14,0.31-4.29,0.31-6.43
		c0-2.6-0.15-5.66-1.38-8.11c-1.68-3.37-6.28-3.98-9.34-2.3c-3.98,2.14-5.36,7.04-4.13,11.33c0.76,2.6,2.14,4.74,4.29,6.28
		c1.68,1.38,3.83,1.99,5.97,2.14c-0.46,3.37-0.92,8.72-2.14,11.78c-0.53,1.44-0.75,2.45-0.76,3.17c-0.24,0.43-0.5,0.86-0.76,1.27
		c-3.52,5.51-5.51,7.8-7.35,8.57c-3.06-4.44-1.99-20.81-0.92-28.62c0.15-1.22-6.43-0.31-6.89-0.15c-2.75,0.46-6.28,1.38-6.58,2.6
		c-0.51,3.38-0.88,7.74-1.01,12.08c-3.55,2.26-7.04,3.03-13.53,2.92c0,0,0.15-1.53,0.15-1.99c-0.15-1.22-3.67-4.29-5.2-5.2
		c-3.21-1.84-6.73-3.06-6.58-1.53c0.31,2.14,0.31,4.29,0.31,6.58c-0.15,0.46-0.31,0.92-0.46,1.22c-4.13-0.46-8.26-1.07-11.78-1.84
		c-1.68-0.46-3.37-0.77-5.2-0.92c-0.92,0-4.74,1.53-2.45,1.84c1.38,0.31,2.75,0.61,4.29,0.92c5.97,1.68,9.64,6.28,11.78,12.09
		c-2.91,7.5-9.18,19.13-14.23,22.96c-9.95-12.7-9.18-34.28-7.04-49.43c1.99-13.93,6.58-40.86,21.27-48.21
		c12.4-0.31,13.16,19.59,12.24,28.47c-0.31,3.52,5.2,3.52,5.51,0c1.07-12.4-1.68-32.75-16.38-33.82c-1.38-0.15-8.88-0.31-16.53,5.66
		c-11.33,8.88-16.53,28.16-18.52,41.32c-2.6,17.6-5.2,44.69,7.19,59.69c1.07,1.38,4.74,1.53,7.96,1.07
		c4.29,0.31,8.57-3.98,11.17-7.19c3.67-4.59,6.58-9.79,9.03-15.15c0,0.15,0,0.31,0,0.46c-0.46,4.9-0.92,9.95-1.38,14.85
		c-0.46,3.83,11.02,10.41,11.33,6.73c0.61-5.2,1.07-10.41,1.53-15.76c0.77-6.73,1.53-14.08,1.99-20.97
		c5.96-0.09,9.89-0.77,13.49-2.47c-0.04,5.26,0.34,10.22,1.35,13.03c0.92,2.3,2.45,3.21,4.9,3.21c1.84,0.15,3.83-0.15,5.66-0.46
		c7.96-0.61,13.16-8.88,16.22-15.3c0.46-0.77,0.77-1.53,1.07-2.3c0.23-0.54,0.03-0.91-0.36-1.12c0.94-3.25,1.41-7.14,1.73-10.36
		l2.6-0.46c0.77,1.22,0.77,4.29,0.31,6.28c-0.61,4.29-1.99,8.42-3.21,12.55c-1.38,4.75-3.06,14.23,3.67,14.54
		c2.91,0.15,6.58-0.31,9.34-1.22c4.2-1.37,9.08-4.49,12.54-10.1c2.52,9.16,7.83,11.27,15.31,10.41c5.05-0.61,9.34-3.83,12.7-7.35
		c3.21-3.21,5.82-6.89,8.26-10.71c0.46-0.77,1.07-1.53,1.53-2.45C753.94,857.65,753.02,857.19,752.26,857.04z M633.19,866.68h-0.15
		c-1.07-1.99-2.6-3.83-4.29-5.36c1.68,0.31,3.52,0.46,5.36,0.76C633.8,863.77,633.5,865.3,633.19,866.68z M686.91,839.74
		c0,1.53-0.15,3.21-0.31,4.75c-0.76-0.15-1.53-0.31-2.3-0.77c-3.52-1.99-5.2-6.73-4.59-10.71c0.31-2.3,1.07-3.06,1.53-3.37
		c1.53-1.07,3.67-0.61,4.74,2.14C686.91,834.23,687.06,837.14,686.91,839.74z M727.16,840.97c0.46-8.42,1.84-17.14,4.13-25.25
		c1.38-4.44,3.98-12.09,6.12-12.4c1.38,0.46,2.14,2.45,2.6,3.83c0.92,3.06,0.77,6.12,0.31,9.18c-0.77,6.12-2.91,12.09-5.66,17.6
		c-2.14,4.59-4.74,9.03-7.65,13.01C727,844.95,727.16,842.96,727.16,840.97z"/>
</g>
</svg>
